<svg id="Capa_1" enable-background="new 0 0 512 512" height="512" viewBox="0 0 512 512" width="512" xmlns="http://www.w3.org/2000/svg"><g><g><path d="m296 136c78.089 0 127.917 40 206 40v200c-78.1 0-127.9 40-206 40s-127.9-40-206-40v-200c78.065 0 127.927-40 206-40z" fill="#ffa2c3"/><path d="m336 236c11.05 0 20 8.95 20 20s-8.95 20-20 20c-6.6 0-12.17-3.41-15.81-8.33-6.74 5.15-15.06 8.33-24.19 8.33s-17.45-3.18-24.19-8.33c-3.64 4.92-9.21 8.33-15.81 8.33-11.05 0-20-8.95-20-20s8.95-20 20-20c0-22.09 17.91-40 40-40s40 17.91 40 40z" fill="#eefaff"/><g fill="#ffda8f"><path d="m320.19 266h-48.38l-15.81 10 40 100 40-100z"/><path d="m482 30h-432l-20-20-20 20v472h40v-432h432l20-20z"/></g></g><g><path d="m345.272 227.466c-4.063-23.518-24.612-41.466-49.272-41.466s-45.209 17.948-49.271 41.466c-12.019 3.914-20.729 15.226-20.729 28.534 0 14.091 9.768 25.937 22.885 29.14l37.829 94.573c1.519 3.797 5.196 6.286 9.285 6.286s7.767-2.489 9.285-6.286l37.829-94.573c13.119-3.203 22.887-15.049 22.887-29.14 0-13.308-8.71-24.62-20.728-28.534zm-89.272 18.534c5.522 0 10-4.477 10-10 0-16.542 13.458-30 30-30s30 13.458 30 30c0 5.523 4.478 10 10 10 5.514 0 10 4.486 10 10s-4.486 10-10 10c-4.008 0-6.589-2.68-7.771-4.277-3.315-4.482-9.669-5.39-14.11-1.999-5.374 4.106-11.64 6.276-18.119 6.276s-12.745-2.17-18.119-6.276c-4.428-3.383-10.787-2.495-14.11 1.999-1.182 1.598-3.763 4.277-7.771 4.277-5.514 0-10-4.486-10-10s4.486-10 10-10zm40 103.074-26.569-66.423c1.279-.676 2.517-1.442 3.699-2.309 7.086 3.721 14.858 5.658 22.87 5.658s15.784-1.938 22.87-5.658c1.182.867 2.42 1.633 3.699 2.309z"/><path d="m502 166c-17.97 0-35.942-2.222-56-6.942v-79.058h36c2.652 0 5.195-1.054 7.071-2.929l20-20c3.905-3.905 3.905-10.237 0-14.143l-20-20c-1.876-1.874-4.419-2.928-7.071-2.928h-140.999c-5.523 0-10 4.477-10 10s4.477 10 10 10h136.856l10 10-10 10h-417.857v-20h191.001c5.522 0 10-4.477 10-10s-4.478-10-10-10h-196.858l-17.072-17.071c-3.906-3.905-10.236-3.905-14.143 0l-20 20c-1.874 1.875-2.928 4.419-2.928 7.071v472c0 5.523 4.477 10 10 10h40c5.522 0 10-4.477 10-10v-422h86v79.058c-20.058 4.72-38.031 6.942-56 6.942-5.522 0-10 4.477-10 10v200c0 5.523 4.478 10 10 10 37.522 0 67.878 9.493 100.016 19.544 32.156 10.057 65.407 20.456 105.984 20.456s73.828-10.399 105.984-20.456c32.138-10.051 62.494-19.544 100.016-19.544 5.522 0 10-4.477 10-10v-200c0-5.523-4.478-10-10-10zm-462 326h-20v-457.858l10-10 10 10zm386-412v73.768c-8.12-2.346-16.163-4.857-24.026-7.316-32.155-10.055-65.403-20.452-105.974-20.452s-73.819 10.397-105.974 20.452c-7.863 2.459-15.905 4.969-24.026 7.316v-73.768zm66 286.211c-36.114 1.521-66.51 11.027-95.984 20.246-32.138 10.05-62.494 19.543-100.016 19.543s-67.878-9.493-100.016-19.544c-29.475-9.218-59.87-18.725-95.984-20.246v-180.42c14.849-.623 29.854-2.654 46-6.217v26.427h-10c-5.523 0-10 4.477-10 10s4.477 10 10 10h40c5.523 0 10-4.477 10-10s-4.477-10-10-10h-10v-31.459c10.226-2.837 20.249-5.953 29.995-9.001 32.136-10.048 62.488-19.54 100.005-19.54s67.869 9.492 100.005 19.54c9.746 3.048 19.769 6.163 29.995 9.001v31.459h-10c-5.522 0-10 4.477-10 10s4.478 10 10 10h40c5.522 0 10-4.477 10-10s-4.478-10-10-10h-10v-26.427c16.147 3.564 31.152 5.594 46 6.217z"/><circle cx="296.001" cy="30.001" r="10"/></g></g></svg>