<?xml version="1.0" encoding="iso-8859-1"?>
<!-- Generator: Adobe Illustrator 19.0.0, SVG Export Plug-In . SVG Version: 6.00 Build 0)  -->
<svg version="1.1" id="Capa_1" xmlns="http://www.w3.org/2000/svg" xmlns:xlink="http://www.w3.org/1999/xlink" x="0px" y="0px"
	 viewBox="0 0 512 512" style="enable-background:new 0 0 512 512;" xml:space="preserve">
<path style="fill:#72D8FF;" d="M438,138H74c-35.346,0-64-28.654-64-64l0,0c0-35.346,28.654-64,64-64h364c35.346,0,64,28.654,64,64
	l0,0C502,109.346,473.346,138,438,138z"/>
<path style="fill:#4DBAF6;" d="M438,266H74c-35.346,0-64-28.654-64-64l0,0c0-35.346,28.654-64,64-64h364c35.346,0,64,28.654,64,64
	l0,0C502,237.346,473.346,266,438,266z"/>
<path style="fill:#D8FB93;" d="M96.584,502h320c11.828,0,21.416-9.588,21.416-21.416V138H75.168v342.584
	C75.168,492.412,84.756,502,96.584,502z"/>
<path style="fill:#D661A4;" d="M342.915,264.723c-6.233-19.182-24.03-31.366-43.164-31.363c-5.91-18.199-22.997-31.36-43.167-31.36
	s-37.257,13.161-43.167,31.36c-19.135-0.003-36.932,12.181-43.164,31.363c-6.233,19.182,1.004,39.5,16.486,50.745
	c-5.916,18.197,0.173,38.888,16.49,50.743s37.877,11.252,53.355,0.002c15.479,11.249,37.038,11.853,53.355-0.002
	c16.317-11.855,22.406-32.546,16.49-50.743C341.911,304.223,349.148,283.905,342.915,264.723z"/>
<circle style="fill:#FFB954;" cx="256.58" cy="292.77" r="31.682"/>
<path d="M475.077,138C497.131,125.174,512,101.298,512,74c0-40.804-33.196-74-74-74H74C33.196,0,0,33.196,0,74
	c0,27.298,14.869,51.174,36.923,64C14.869,150.826,0,174.702,0,202c0,37.813,28.515,69.073,65.168,73.455v205.129
	c0,17.323,14.093,31.416,31.416,31.416h320C433.907,512,448,497.907,448,480.584v-43.942c0-5.522-4.477-10-10-10s-10,4.478-10,10
	v43.942c0,6.295-5.121,11.416-11.416,11.416h-320c-6.295,0-11.416-5.121-11.416-11.416V266V148H428v118v77.479
	c0,5.522,4.477,10,10,10s10-4.478,10-10v-68.173c36.089-4.899,64-35.895,64-73.306C512,174.702,497.131,150.826,475.077,138z
	 M20,202c0-26.768,19.58-49.05,45.168-53.278v106.557C39.58,251.05,20,228.768,20,202z M75.168,128H74c-29.776,0-54-24.225-54-54
	s24.224-54,54-54h364c29.776,0,54,24.225,54,54s-24.224,54-54,54H75.168z M448,255.072V148.928c25.014,4.704,44,26.713,44,53.072
	S473.014,250.368,448,255.072z"/>
<path d="M438,382.45c-2.63,0-5.21,1.069-7.07,2.93c-1.86,1.86-2.93,4.439-2.93,7.07c0,2.63,1.07,5.21,2.93,7.069
	c1.86,1.87,4.44,2.931,7.07,2.931s5.21-1.061,7.07-2.931c1.86-1.859,2.93-4.439,2.93-7.069c0-2.631-1.07-5.21-2.93-7.07
	S440.63,382.45,438,382.45z"/>
<path d="M256.584,251.092c-22.983,0-41.682,18.698-41.682,41.682s18.699,41.683,41.682,41.683s41.682-18.699,41.682-41.683
	S279.567,251.092,256.584,251.092z M256.584,314.456c-11.956,0-21.682-9.727-21.682-21.683c0-11.955,9.727-21.682,21.682-21.682
	c11.955,0,21.682,9.727,21.682,21.682C278.266,304.729,268.54,314.456,256.584,314.456z"/>
<path d="M352.426,261.634c-6.714-20.664-24.606-35.206-45.723-37.844c-9.035-19.266-28.395-31.79-50.119-31.79
	s-41.083,12.524-50.119,31.791c-21.115,2.639-39.009,17.181-45.723,37.843c-6.713,20.66-0.784,42.942,14.748,57.489
	c-4.016,20.897,4.285,42.409,21.86,55.178c14.367,10.439,32.375,13.173,48.649,8.211v35.451
	c-10.282-8.999-23.732-14.463-38.438-14.463c-5.523,0-10,4.478-10,10s4.477,10,10,10c17.735,0,32.697,12.077,37.11,28.438h-77.82
	c-5.523,0-10,4.478-10,10s4.477,10,10,10h178.295c5.523,0,10-4.478,10-10s-4.477-10-10-10h-77.82
	c4.413-16.36,19.374-28.438,37.11-28.438c5.523,0,10-4.478,10-10s-4.477-10-10-10c-14.705,0-28.155,5.464-38.437,14.463v-35.824
	c5.604,1.846,11.429,2.776,17.257,2.776c11.41-0.001,22.822-3.538,32.56-10.613c17.576-12.77,25.876-34.281,21.861-55.179
	C353.209,304.576,359.139,282.294,352.426,261.634z M320.553,307.377c-3.506,2.547-4.973,7.062-3.633,11.183
	c4.753,14.622-0.414,30.521-12.858,39.562c-12.444,9.041-29.161,9.042-41.599,0.003c-1.752-1.273-3.816-1.91-5.879-1.91
	s-4.126,0.637-5.879,1.91c-12.438,9.04-29.154,9.038-41.599-0.004c-12.443-9.04-17.61-24.938-12.857-39.561
	c1.339-4.121-0.127-8.636-3.633-11.183c-12.44-9.036-17.605-24.935-12.852-39.563c4.753-14.628,18.272-24.454,33.646-24.454
	c0.002,0,0.006,0,0.007,0c4.333,0,8.172-2.79,9.511-6.911c4.75-14.623,18.275-24.448,33.656-24.448s28.907,9.825,33.656,24.448
	c1.339,4.121,5.179,6.912,9.513,6.911c0.002,0,0.004,0,0.005,0c15.373,0,28.894,9.827,33.646,24.454
	C338.157,282.442,332.993,298.341,320.553,307.377z"/>
<path d="M244.684,44H138.5c-5.523,0-10,4.478-10,10s4.477,10,10,10h106.184c5.523,0,10-4.478,10-10S250.207,44,244.684,44z"/>
<path d="M91.19,44c-2.63,0-5.21,1.069-7.07,2.93c-1.86,1.86-2.93,4.44-2.93,7.07s1.07,5.21,2.93,7.069
	C85.98,62.93,88.56,64,91.19,64s5.21-1.07,7.07-2.931c1.86-1.859,2.93-4.439,2.93-7.069s-1.07-5.21-2.93-7.07S93.82,44,91.19,44z"/>
<g>
</g>
<g>
</g>
<g>
</g>
<g>
</g>
<g>
</g>
<g>
</g>
<g>
</g>
<g>
</g>
<g>
</g>
<g>
</g>
<g>
</g>
<g>
</g>
<g>
</g>
<g>
</g>
<g>
</g>
</svg>
