<?xml version="1.0" encoding="iso-8859-1"?>
<!-- Generator: Adobe Illustrator 19.0.0, SVG Export Plug-In . SVG Version: 6.00 Build 0)  -->
<svg version="1.1" id="Layer_1" xmlns="http://www.w3.org/2000/svg" xmlns:xlink="http://www.w3.org/1999/xlink" x="0px" y="0px"
	 viewBox="0 0 512 512" style="enable-background:new 0 0 512 512;" xml:space="preserve">
<polygon style="fill:#ADE6F7;" points="173.815,62.404 9.447,18.318 9.447,411.291 173.815,455.377 "/>
<polygon style="fill:#7BD4EF;" points="338.185,18.318 173.815,62.404 173.815,455.377 338.185,411.291 "/>
<polygon style="fill:#ADE6F7;" points="502.553,62.404 338.185,18.318 338.185,411.291 502.553,455.377 "/>
<polygon style="fill:#FF6F52;" points="173.815,257.928 9.447,213.842 9.447,411.291 173.815,455.377 "/>
<polygon style="fill:#E25749;" points="338.185,213.842 173.815,257.928 173.815,455.377 338.185,411.291 "/>
<polygon style="fill:#FF6F52;" points="502.553,257.928 338.185,213.842 338.185,411.291 502.553,455.377 "/>
<path d="M505.002,53.279L340.632,9.194c-0.029-0.008-0.068-0.003-0.1-0.009c-1.556-0.399-3.206-0.417-4.797,0.009l-161.921,43.43
	L11.894,9.194c-2.835-0.76-5.867-0.159-8.197,1.629C1.367,12.611,0,15.381,0,18.318v392.973v38.304c0,5.217,4.228,9.447,9.447,9.447
	s9.447-4.23,9.447-9.447v-25.989l145.474,39.018v31.057c0,5.217,4.228,9.447,9.447,9.447s9.447-4.23,9.447-9.447v-31.057
	l145.474-39.018v25.989c0,5.217,4.228,9.447,9.447,9.447s9.447-4.23,9.447-9.447v-25.989l145.476,39.018v31.057
	c0,5.217,4.228,9.447,9.447,9.447s9.447-4.23,9.447-9.447v-38.304V62.404C512,58.129,509.129,54.386,505.002,53.279z
	 M328.737,30.633v174.403l-17.081,4.581c4.446-9.701,6.803-20.326,6.803-31.317c0-20.094-7.826-38.987-22.034-53.195
	c-24.203-24.203-63.583-24.203-87.785,0c-20.098,20.098-20.098,52.801,0,72.899c8.147,8.146,18.976,12.631,30.497,12.631
	c11.52,0,22.349-4.485,30.496-12.631c14.188-14.188,14.188-37.275,0-51.465c-3.691-3.689-9.672-3.691-13.359,0
	c-3.691,3.689-3.691,9.67-0.001,13.359c6.822,6.823,6.823,17.923,0,24.746c-4.577,4.577-10.662,7.098-17.136,7.098
	c-6.474,0-12.559-2.52-17.136-7.098c-12.732-12.732-12.732-33.447,0-46.179c8.156-8.156,18.998-12.648,30.531-12.648
	c11.533,0,22.377,4.492,30.531,12.648c10.641,10.641,16.502,24.788,16.502,39.835c0,14.521-5.47,28.192-15.415,38.693
	l-100.887,27.06V69.65L328.737,30.633z M164.368,69.652v174.403l-100.887-27.06c-9.944-10.502-15.415-24.173-15.415-38.693
	c0-15.048,5.86-29.195,16.502-39.835c5.635-5.635,12.684-9.594,20.385-11.446c5.072-1.221,8.196-6.322,6.976-11.394
	c-1.221-5.072-6.322-8.196-11.394-6.976c-11.087,2.667-21.228,8.357-29.327,16.455c-14.208,14.208-22.034,33.101-22.034,53.195
	c0,10.991,2.357,21.615,6.803,31.317l-17.083-4.584V30.633L164.368,69.652z M173.815,344.21c-5.219,0-9.447,4.23-9.447,9.447v89.405
	L18.894,404.045V224.598l145.474,39.018v58.341c0,5.217,4.228,9.447,9.447,9.447s9.447-4.23,9.447-9.447v-58.341l145.474-39.018
	v179.447l-145.474,39.017v-89.405C183.262,348.44,179.034,344.21,173.815,344.21z M347.63,224.598l86.714,23.258
	c5.041,1.349,10.22-1.639,11.573-6.677c1.353-5.038-1.639-10.22-6.677-11.572l-47.019-12.611
	c-20.859-22.044-20.509-56.937,1.085-78.531c8.156-8.156,18.998-12.648,30.531-12.648c11.534,0,22.378,4.492,30.533,12.648
	c6.167,6.167,9.564,14.367,9.564,23.09c0,8.723-3.396,16.923-9.565,23.09c-4.577,4.577-10.662,7.098-17.136,7.098
	c-6.473,0-12.558-2.52-17.136-7.098c-3.305-3.305-5.124-7.699-5.124-12.372s1.82-9.068,5.124-12.373
	c3.691-3.689,3.691-9.67,0.001-13.359c-3.691-3.689-9.672-3.691-13.359,0c-6.875,6.874-10.66,16.012-10.66,25.732
	c0,9.722,3.785,18.86,10.659,25.732c8.147,8.146,18.976,12.631,30.496,12.631c11.52,0,22.349-4.485,30.495-12.631
	c9.737-9.735,15.099-22.682,15.099-36.45s-5.362-26.713-15.098-36.45c-11.724-11.724-27.312-18.181-43.893-18.181
	c-16.58,0-32.168,6.457-43.893,18.181c-22.816,22.816-27.876,56.76-15.196,84.521l-17.117-4.591V30.633L493.106,69.65v174.403
	l-25.395-6.811c-5.032-1.349-10.22,1.637-11.572,6.677c-1.352,5.04,1.639,10.22,6.678,11.572l30.288,8.123v179.447L347.63,404.044
	L347.63,224.598L347.63,224.598z"/>
<path d="M91.358,146.54c-3.688-3.691-9.67-3.689-13.359,0c-14.188,14.189-14.188,37.276,0,51.465
	c8.147,8.146,18.976,12.632,30.497,12.632c11.52,0,22.349-4.487,30.496-12.632c20.098-20.098,20.098-52.801,0-72.899
	c-7.204-7.202-16.133-12.563-25.825-15.504c-4.991-1.512-10.267,1.305-11.782,6.298c-1.515,4.993,1.305,10.268,6.297,11.782
	c6.73,2.042,12.937,5.77,17.949,10.783c12.732,12.732,12.732,33.447,0,46.179c-9.447,9.449-24.824,9.447-34.271,0
	c-6.822-6.822-6.822-17.923,0-24.746C95.049,156.21,95.049,150.229,91.358,146.54z"/>
<g>
</g>
<g>
</g>
<g>
</g>
<g>
</g>
<g>
</g>
<g>
</g>
<g>
</g>
<g>
</g>
<g>
</g>
<g>
</g>
<g>
</g>
<g>
</g>
<g>
</g>
<g>
</g>
<g>
</g>
</svg>
