<svg viewBox="0 -31 512 512" xmlns="http://www.w3.org/2000/svg"><path d="m30 195h30v240h-30zm0 0" fill="#5a5a5a"/><path d="m0 420h90v30h-90zm0 0" fill="#5a5a5a"/><path d="m452 195h30v240h-30zm0 0" fill="#444"/><path d="m422 420h90v30h-90zm0 0" fill="#444"/><path d="m512 0v210h-512v-210h60l30 30h332l30-30zm0 0" fill="#96c8ef"/><path d="m512 0v210h-256v-180h166l30-30zm0 0" fill="#78b9eb"/><path d="m60 0h392v60h-392zm0 0" fill="#5a5a5a"/><path d="m392 135v210l-136 11.398438-46 3.601562c0 16.5-43.5 30-60 30s-30-13.5-30-30v-225zm0 0" fill="#ececf1"/><path d="m180 180h152v30h-152zm0 0" fill="#d3d3d8"/><path d="m180 240h152v30h-152zm0 0" fill="#d3d3d8"/><path d="m256 0h196v60h-196zm0 0" fill="#444"/><path d="m392 135v210l-136 11.398438v-221.398438zm0 0" fill="#e2e2e7"/><path d="m256 180h76v30h-76zm0 0" fill="#babac0"/><path d="m256 240h76v30h-76zm0 0" fill="#babac0"/><path d="m90 120h332v30h-332zm0 0" fill="#5a5a5a"/><path d="m256 120h166v30h-166zm0 0" fill="#444"/><path d="m422 330v15c0 24.898438-20.097656 45-45 45h-227c16.5 0 30-13.5 30-30v-30zm0 0" fill="#d3d3d8"/><path d="m422 330v15c0 24.898438-20.097656 45-45 45h-121v-60zm0 0" fill="#babac0"/></svg>