<svg id="Filled" height="512" viewBox="0 0 512 512" width="512" xmlns="http://www.w3.org/2000/svg"><path d="m88 64h384v240h-384z" fill="#9aa3a8"/><path d="m144 256h272v48h-272z" fill="#c3c6c7"/><path d="m136 40h288v56h-288z" fill="#c3c6c7"/><path d="m176 256h208v232h-208z" fill="#e9eef2"/><path d="m176 24h208v72h-208z" fill="#e9eef2"/><g fill="#414649"><circle cx="272" cy="208" r="16"/><circle cx="336" cy="208" r="16"/><circle cx="400" cy="208" r="16"/></g><path d="m208 256h144v200h-144z" fill="#6ed2f0"/><path d="m352 456-72-72 40-56-72-56 32-16h72z" fill="#35a872"/><circle cx="256" cy="336" fill="#eb423f" r="16"/><path d="m40 104h48v32h-48z" fill="#395a8d"/><path d="m40 136h48v32h-48z" fill="#eb423f"/><path d="m40 168h48v32h-48z" fill="#ffb632"/><path d="m40 200h48v32h-48z" fill="#414649"/><path d="m472 56h-40v-16a8 8 0 0 0 -8-8h-32v-8a8 8 0 0 0 -8-8h-208a8 8 0 0 0 -8 8v8h-32a8 8 0 0 0 -8 8v16h-40a8 8 0 0 0 -8 8v32h-40a8 8 0 0 0 -8 8v128a8 8 0 0 0 8 8h40v64a8 8 0 0 0 8 8h80v176a8 8 0 0 0 8 8h208a8 8 0 0 0 8-8v-176h80a8 8 0 0 0 8-8v-240a8 8 0 0 0 -8-8zm-56-8v40h-24v-40zm-40-16v56h-192v-56zm-232 16h24v40h-24zm-64 112h-32v-16h32zm0 16v16h-32v-16zm0-64v16h-32v-16zm-32 112v-16h32v16zm104 72v-32h16v32zm32 184v-216h16v192a8 8 0 0 0 8 8h144a8 8 0 0 0 8-8v-192h16v216zm160-43.314-53.551-53.551 36.061-50.485a8 8 0 0 0 -1.6-10.965l-61.979-48.206 18.958-9.479h62.111zm-100.911-158.371 65.937 51.285-35.536 49.75a8 8 0 0 0 .853 10.307l58.343 58.343h-116.686v-184h30.111l-1.689.845a8 8 0 0 0 -1.333 13.47zm148.911-14.315h16v32h-16zm72 32h-40v-40a8 8 0 0 0 -8-8h-272a8 8 0 0 0 -8 8v40h-40v-224h32v24a8 8 0 0 0 8 8h288a8 8 0 0 0 8-8v-24h32z"/><path d="m272 184a24 24 0 1 0 24 24 24.027 24.027 0 0 0 -24-24zm0 32a8 8 0 1 1 8-8 8.009 8.009 0 0 1 -8 8z"/><path d="m336 184a24 24 0 1 0 24 24 24.027 24.027 0 0 0 -24-24zm0 32a8 8 0 1 1 8-8 8.009 8.009 0 0 1 -8 8z"/><path d="m400 184a24 24 0 1 0 24 24 24.027 24.027 0 0 0 -24-24zm0 32a8 8 0 1 1 8-8 8.009 8.009 0 0 1 -8 8z"/><path d="m232 336a24 24 0 1 0 24-24 24.027 24.027 0 0 0 -24 24zm24-8a8 8 0 1 1 -8 8 8.009 8.009 0 0 1 8-8z"/></svg>