<svg height="512" viewBox="0 0 64 64" width="512" xmlns="http://www.w3.org/2000/svg"><g id="flat"><path d="m49 15 4-4v42l-4-4z" fill="#ad6327"/><path d="m7 15-4-4h50l-4 4z" fill="#d3843d"/><path d="m7 49-4 4v-42l4 4z" fill="#ad6327"/><path d="m49 49 4 4h-50l4-4z" fill="#d3843d"/><path d="m53 18h8v6h-8z" fill="#66342e"/><path d="m53 40h8v6h-8z" fill="#66342e"/><path d="m7 15h42v34h-42z" fill="#5e2c81"/><path d="m17 37h-5v-2h4v-2h-3a1 1 0 0 1 -1-1v-4a1 1 0 0 1 1-1h5v2h-4v2h3a1 1 0 0 1 1 1v4a1 1 0 0 1 -1 1z" fill="#fcf05a"/><path d="m35 37h-5a1 1 0 0 1 -1-1v-8a1 1 0 0 1 1-1h5a1 1 0 0 1 1 1v8a1 1 0 0 1 -1 1zm-4-2h3v-6h-3z" fill="#fcf05a"/><path d="m25 31h-3v-4h-2v10h2v-4h3v4h2v-10h-2z" fill="#fcf05a"/><path d="m44 27h-5a1 1 0 0 0 -1 1v9h2v-4h4a1 1 0 0 0 1-1v-4a1 1 0 0 0 -1-1zm-1 4h-3v-2h3z" fill="#fcf05a"/><g fill="#da1c4b"><path d="m10 23h36v2h-36z"/><path d="m10 39h36v2h-36z"/><path d="m18 43h20v2h-20z"/><path d="m18 19h20v2h-20z"/><path d="m13 19h2v2h-2z"/><path d="m42 43h2v2h-2z"/></g></g></svg>