<svg id="icons" enable-background="new 0 0 64 64" height="512" viewBox="0 0 64 64" width="512" xmlns="http://www.w3.org/2000/svg"><path d="m24.01 2h15.98c0 4.42-3.58 8-8 8s-8-3.58-8-8z" fill="#ccd1d9"/><path d="m59.01 11.01-6 10-6-4.01v15 3h-30.01v-3-15l-6 4.01-6-10 11-8.01 7.99-1c0 4.42 3.58 8 8 8s8-3.58 8-8h.01l8.01 1z" fill="#e6e9ed"/><path d="m47.01 32h8.99l6.41 6.59c-.36-.37-.86-.59-1.41-.59h-58c-.55 0-1.05.22-1.41.59l6.41-6.59h9v3h30.01z" fill="#545c66"/><path d="m8 59h48v3h-48z" fill="#545c66"/><path d="m22 43h20v4h-20z" fill="#5d9cec"/><path d="m8 59v3h-5c-1.1 0-2-.9-2-2v-20c0-.54.21-1.02.56-1.38l.03-.03c.36-.37.86-.59 1.41-.59h58c.55 0 1.05.22 1.41.59.01.01.02.021.03.03.35.36.56.84.56 1.38v20c0 1.1-.9 2-2 2h-5v-3zm34-12v-4h-20v4z" fill="#656d78"/><path d="m1.559 39.618c-.251 0-.503-.094-.697-.283-.396-.386-.404-1.019-.02-1.414l6.441-6.619c.386-.396 1.018-.404 1.414-.02.396.385.404 1.019.02 1.414l-6.441 6.619c-.197.202-.457.303-.717.303z"/><path d="m17.001 32.999h-9.001c-.553 0-1-.448-1-1s.447-1 1-1h9.001c.553 0 1 .448 1 1s-.447 1-1 1z"/><path d="m62.443 39.618c-.261 0-.521-.102-.717-.303l-6.443-6.619c-.385-.396-.377-1.029.02-1.415.395-.385 1.027-.377 1.414.019l6.443 6.62c.385.396.377 1.028-.02 1.414-.194.19-.445.284-.697.284z"/><path d="m56 32.999h-8.994c-.553 0-1-.448-1-1s.447-1 1-1h8.994c.553 0 1 .448 1 1s-.447 1-1 1z"/><path d="m49.997 35.999h-35.994c-.553 0-1-.447-1-1s.447-1 1-1h35.994c.553 0 1 .447 1 1s-.447 1-1 1z"/><path d="m56 60.001h-48c-.553 0-1-.447-1-1s.447-1 1-1h48c.553 0 1 .447 1 1s-.447 1-1 1z"/><path d="m61 63.001h-58c-1.654 0-3-1.346-3-3v-20.002c0-1.654 1.346-3 3-3h58c1.654 0 3 1.346 3 3v20.002c0 1.654-1.346 3-3 3zm-58-24.002c-.552 0-1 .448-1 1v20.002c0 .552.448 1 1 1h58c.552 0 1-.448 1-1v-20.002c0-.552-.448-1-1-1z"/><path d="m8 63.001c-.553 0-1-.447-1-1v-3c0-.553.447-1 1-1s1 .447 1 1v3c0 .553-.447 1-1 1z"/><path d="m56 63.001c-.553 0-1-.447-1-1v-3c0-.553.447-1 1-1s1 .447 1 1v3c0 .553-.447 1-1 1z"/><path d="m8.03 45.999c-.553 0-1.005-.447-1.005-1s.442-1 .994-1h.011c.552 0 1 .447 1 1s-.448 1-1 1z"/><path d="m12.03 45.999c-.553 0-1.005-.447-1.005-1s.442-1 .994-1h.011c.552 0 1 .447 1 1s-.448 1-1 1z"/><path d="m56.03 45.999c-.553 0-1.005-.447-1.005-1s.442-1 .994-1h.011c.552 0 1 .447 1 1s-.448 1-1 1z"/><path d="m52.03 45.999c-.553 0-1.005-.447-1.005-1s.442-1 .994-1h.011c.552 0 1 .447 1 1s-.448 1-1 1z"/><path d="m42 47.999h-20c-.553 0-1-.447-1-1v-4c0-.553.447-1 1-1h20c.553 0 1 .447 1 1v4c0 .553-.447 1-1 1zm-19-2h18v-2h-18z"/><path d="m31.989 10.999c-4.963 0-9-4.038-9-9 0-.552.447-1 1-1s1 .448 1 1c0 3.86 3.141 7 7 7s7-3.14 7-7c0-.552.447-1 1-1s1 .448 1 1c0 4.962-4.037 9-9 9z"/><path d="m17.001 35.995c-.553 0-1-.447-1-1v-18c0-.552.447-1 1-1s1 .448 1 1v18c0 .553-.447 1-1 1z"/><path d="m11.001 22.008c-.322 0-.64-.156-.832-.444-.308-.459-.184-1.08.275-1.387l6.001-4.013c.458-.308 1.079-.185 1.387.275.308.459.184 1.08-.275 1.387l-6.001 4.013c-.171.115-.364.169-.555.169z"/><path d="m11.001 22.008c-.34 0-.671-.173-.858-.485l-5.999-10c-.284-.474-.131-1.088.343-1.372.474-.285 1.088-.131 1.372.343l5.999 10c.284.474.131 1.088-.343 1.372-.161.096-.339.142-.514.142z"/><path d="m5.002 12.008c-.309 0-.613-.143-.81-.411-.325-.447-.227-1.072.22-1.397l10.996-8.008c.446-.325 1.071-.228 1.397.219.325.447.227 1.072-.22 1.397l-10.995 8.008c-.178.129-.384.192-.588.192z"/><path d="m15.996 4c-.497 0-.928-.37-.991-.876-.068-.548.32-1.048.868-1.116l8.014-1c.55-.068 1.048.321 1.116.868.068.548-.32 1.048-.868 1.116l-8.014 1c-.042.005-.084.008-.125.008z"/><path d="m47.006 35.995c-.553 0-1-.447-1-1v-18c0-.552.447-1 1-1s1 .448 1 1v18c0 .553-.447 1-1 1z"/><path d="m53.006 22.008c-.191 0-.384-.055-.555-.169l-6.001-4.013c-.459-.307-.583-.928-.275-1.387.307-.459.928-.583 1.387-.275l6.001 4.013c.459.307.583.928.275 1.387-.192.289-.51.444-.832.444z"/><path d="m53.006 22.008c-.175 0-.353-.046-.514-.143-.474-.284-.627-.898-.343-1.372l5.999-10c.284-.474.897-.628 1.372-.343.474.284.627.898.343 1.372l-5.999 10c-.187.313-.518.486-.858.486z"/><path d="m59.005 12.008c-.204 0-.41-.062-.588-.192l-10.996-8.008c-.446-.325-.545-.95-.22-1.397.326-.447.951-.545 1.397-.219l10.997 8.008c.446.325.545.95.22 1.397-.197.268-.502.411-.81.411z"/><path d="m48.011 4c-.041 0-.083-.002-.125-.008l-8.014-1c-.548-.068-.937-.568-.868-1.116.068-.547.563-.936 1.116-.868l8.014 1c.548.068.937.568.868 1.116-.064.505-.494.876-.991.876z"/><path d="m39.99 2.999h-16.002c-.553 0-1-.448-1-1s.447-1 1-1h16.002c.553 0 1 .448 1 1s-.447 1-1 1z"/></svg>